<svg width="24" height="24" viewBox="0 0 24 24" fill="none" xmlns="http://www.w3.org/2000/svg">
<path d="M9 13C10.6569 13 12 14.3431 12 16V19C12 20.6569 10.6569 22 9 22H5C3.34315 22 2 20.6569 2 19V16C2 14.3431 3.34315 13 5 13H9Z" fill="#141414"/>
<path d="M20 6C20 5.44772 19.5523 5 19 5H6C5.44771 5 5 5.44772 5 6V10C5 10.5523 4.55228 11 4 11C3.44772 11 3 10.5523 3 10V6C3 4.34315 4.34315 3 6 3H19C20.6569 3 22 4.34315 22 6V13C22 14.6569 20.6569 16 19 16H15C14.4477 16 14 15.5523 14 15C14 14.4477 14.4477 14 15 14H19C19.5523 14 20 13.5523 20 13V6Z" fill="#141414"/>
<path d="M14 12C13.4477 12 13 11.5523 13 11V8C13 7.44772 13.4477 7 14 7C14.5523 7 15 7.44772 15 8V8.58579L16.2929 7.29289C16.6834 6.90237 17.3166 6.90237 17.7071 7.29289C18.0976 7.68342 18.0976 8.31658 17.7071 8.70711L16.4142 10H17C17.5523 10 18 10.4477 18 11C18 11.5523 17.5523 12 17 12H14Z" fill="#141414"/>
</svg>
